<svg width="24" height="24" viewBox="0 0 24 24" fill="none" xmlns="http://www.w3.org/2000/svg">
<path d="M15 22.75H9C3.57 22.75 1.25 20.43 1.25 15V9C1.25 3.57 3.57 1.25 9 1.25H15C20.43 1.25 22.75 3.57 22.75 9V15C22.75 20.43 20.43 22.75 15 22.75ZM9 2.75C4.39 2.75 2.75 4.39 2.75 9V15C2.75 19.61 4.39 21.25 9 21.25H15C19.61 21.25 21.25 19.61 21.25 15V9C21.25 4.39 19.61 2.75 15 2.75H9Z" fill="#9197B3"/>
<path d="M12.0006 13.0797C11.8706 13.0797 11.7406 13.0497 11.6206 12.9797L6.32061 9.9197C5.96061 9.7097 5.84059 9.2497 6.05059 8.8997C6.26059 8.5397 6.72061 8.4197 7.07061 8.6297L11.9906 11.4797L16.8806 8.6497C17.2406 8.4397 17.7006 8.5697 17.9006 8.9197C18.1006 9.2697 17.9806 9.7397 17.6306 9.9397L12.3706 12.9797C12.2606 13.0397 12.1306 13.0797 12.0006 13.0797Z" fill="#9197B3"/>
<path d="M12 18.5201C11.59 18.5201 11.25 18.1801 11.25 17.7701V12.3301C11.25 11.9201 11.59 11.5801 12 11.5801C12.41 11.5801 12.75 11.9201 12.75 12.3301V17.7701C12.75 18.1801 12.41 18.5201 12 18.5201Z" fill="#9197B3"/>
<path d="M11.51 18.5125C10.93 18.5125 10.3601 18.3825 9.90007 18.1325L6.70002 16.3525C5.74002 15.8225 5 14.5525 5 13.4525V10.0625C5 8.97251 5.75002 7.7025 6.70002 7.1625L9.90007 5.3825C10.8201 4.8725 12.2 4.8725 13.12 5.3825L16.32 7.1625C17.28 7.6925 18.0201 8.96251 18.0201 10.0625V13.4525C18.0201 14.5425 17.27 15.8125 16.32 16.3525L13.12 18.1325C12.66 18.3925 12.09 18.5125 11.51 18.5125ZM11.51 6.5125C11.18 6.5125 10.86 6.5725 10.63 6.7025L7.43003 8.4825C6.94003 8.7525 6.5 9.5125 6.5 10.0625V13.4525C6.5 14.0125 6.94003 14.7625 7.43003 15.0325L10.63 16.8125C11.09 17.0725 11.93 17.0725 12.39 16.8125L15.59 15.0325C16.08 14.7625 16.5201 14.0025 16.5201 13.4525V10.0625C16.5201 9.50251 16.08 8.7525 15.59 8.4825L12.39 6.7025C12.16 6.5725 11.84 6.5125 11.51 6.5125Z" fill="#9197B3"/>
</svg>
